<svg width="512" height="512" viewBox="0 0 512 512" xmlns="http://www.w3.org/2000/svg" id="dt-master-svg">
  <defs>
    <filter id="neon_glow_blue" x="-50%" y="-50%" width="200%" height="200%">
      <feGaussianBlur stdDeviation="8" result="blur" />
      <feComposite in="SourceGraphic" in2="blur" operator="over" />
    </filter>
    <filter id="neon_glow_green" x="-50%" y="-50%" width="200%" height="200%">
      <feGaussianBlur stdDeviation="6" result="blur" />
      <feComposite in="SourceGraphic" in2="blur" operator="over" />
    </filter>
    <linearGradient id="dt_face_grad" x1="0%" y1="0%" x2="100%" y2="100%">
      <stop offset="0%" style="stop-color:#ffffff;stop-opacity:1" />
      <stop offset="100%" style="stop-color:#38bdf8;stop-opacity:1" />
    </linearGradient>
    <linearGradient id="dt_depth_grad" x1="0%" y1="0%" x2="0%" y2="100%">
      <stop offset="0%" style="stop-color:#0284c7;stop-opacity:1" />
      <stop offset="100%" style="stop-color:#0c4a6e;stop-opacity:1" />
    </linearGradient>
  </defs>

  <!-- Background Brain Layer -->
  <g id="brain-layer" transform="translate(256, 256) scale(1.2)" opacity="0.35">
    <path d="M-10 -110 C-70 -110 -120 -60 -120 0 C-120 40 -100 70 -70 90 C-100 110 -120 140 -120 180 C-120 240 -60 270 0 270 C60 270 120 240 120 180 C120 140 100 110 70 90 C100 70 120 40 120 0 C120 -60 70 -110 10 -110 Z" fill="none" stroke="#38bdf8" stroke-width="2" />
    <path d="M0 -110 V270 M-120 0 H120 M-80 180 H80" fill="none" stroke="#38bdf8" stroke-width="1" opacity="0.5" />
    <circle cx="0" cy="0" r="5" fill="#fff" filter="url(#neon_glow_blue)">
      <animate attributeName="r" values="4;7;4" dur="2s" repeatCount="indefinite" />
    </circle>
  </g>

  <!-- Orbits -->
  <g id="orbits">
    <circle cx="256" cy="256" r="230" fill="none" stroke="#38bdf8" stroke-width="0.5" stroke-dasharray="10 20" opacity="0.15" />
    <circle r="10" fill="#38bdf8" filter="url(#neon_glow_blue)">
      <animateMotion dur="6s" repeatCount="indefinite" path="M 256,26 A 230,230 0 1 1 255.9,26 Z" />
    </circle>
    <circle r="8" fill="#22c55e" filter="url(#neon_glow_green)">
      <animateMotion dur="8s" begin="1s" repeatCount="indefinite" path="M 256,486 A 230,230 0 1 0 256.1,486 Z" />
    </circle>
  </g>

  <!-- Central DT Letters -->
  <g transform="translate(256, 256)">
    <path d="M-180 -100 V100 H-80 C-10 100 30 60 30 0 C30 -60 -10 -100 -80 -100 H-180 Z" fill="url(#dt_depth_grad)" transform="translate(10, 10)" />
    <path d="M-180 -100 V100 H-80 C-10 100 30 60 30 0 C30 -60 -10 -100 -80 -100 H-180 Z" fill="url(#dt_face_grad)" />
    <path d="M-140 -60 H-80 C-50 -60 -10 -40 -10 0 C-10 40 -50 60 -80 60 H-140 V-60 Z" fill="#020617" />
    
    <path d="M40 -100 H180 V-50 H135 V100 H85 V-50 H40 V-100 Z" fill="url(#dt_depth_grad)" transform="translate(10, 10)" />
    <path d="M40 -100 H180 V-50 H135 V100 H85 V-50 H40 V-100 Z" fill="url(#dt_face_grad)" />
  </g>
</svg>