
<svg width="512" height="512" viewBox="0 0 512 512" xmlns="http://www.w3.org/2000/svg" id="dt-master-svg">
  <defs>
    <filter id="neon_glow_blue" x="-50%" y="-50%" width="200%" height="200%">
      <feGaussianBlur stdDeviation="8" result="blur" />
      <feComposite in="SourceGraphic" in2="blur" operator="over" />
    </filter>
    <filter id="neon_glow_green" x="-50%" y="-50%" width="200%" height="200%">
      <feGaussianBlur stdDeviation="6" result="blur" />
      <feComposite in="SourceGraphic" in2="blur" operator="over" />
    </filter>
    <linearGradient id="dt_face_grad" x1="0%" y1="0%" x2="100%" y2="100%">
      <stop offset="0%" style="stop-color:#ffffff;stop-opacity:1" />
      <stop offset="100%" style="stop-color:#38bdf8;stop-opacity:1" />
    </linearGradient>
    <linearGradient id="dt_depth_grad" x1="0%" y1="0%" x2="0%" y2="100%">
      <stop offset="0%" style="stop-color:#0284c7;stop-opacity:1" />
      <stop offset="100%" style="stop-color:#0c4a6e;stop-opacity:1" />
    </linearGradient>
  </defs>

  <!-- Orbits (Spheres that play) -->
  <g id="orbits">
    <circle cx="256" cy="256" r="230" fill="none" stroke="#38bdf8" stroke-width="0.5" stroke-dasharray="10 20" opacity="0.15" />
    <circle r="10" fill="#38bdf8" filter="url(#neon_glow_blue)">
      <animateMotion dur="6s" repeatCount="indefinite" path="M 256,26 A 230,230 0 1 1 255.9,26 Z" />
    </circle>
    <circle r="8" fill="#22c55e" filter="url(#neon_glow_green)">
      <animateMotion dur="8s" begin="1s" repeatCount="indefinite" path="M 256,486 A 230,230 0 1 0 256.1,486 Z" />
    </circle>
  </g>

  <!-- AI Processor Core -->
  <g id="processor-layer" transform="translate(256, 256) scale(0.6)">
    <rect x="-100" y="-100" width="200" height="200" rx="20" fill="#020617" stroke="#38bdf8" stroke-width="4" opacity="0.8" />
    <text x="0" y="25" text-anchor="middle" fill="#38bdf8" font-size="80" font-weight="900" font-family="sans-serif">AI</text>
    <path d="M-110,-70 h10 M-110,-30 h10 M-110,10 h10 M-110,50 h10 M100,-70 h10 M100,-30 h10 M100,10 h10 M100,50 h10" stroke="#38bdf8" stroke-width="4" />
  </g>

  <!-- Central DT Letters -->
  <g transform="translate(256, 256)">
    <path d="M-180 -100 V100 H-80 C-10 100 30 60 30 0 C30 -60 -10 -100 -80 -100 H-180 Z" fill="url(#dt_depth_grad)" transform="translate(10, 10)" />
    <path d="M-180 -100 V100 H-80 C-10 100 30 60 30 0 C30 -60 -10 -100 -80 -100 H-180 Z" fill="url(#dt_face_grad)" />
    <path d="M-140 -60 H-80 C-50 -60 -10 -40 -10 0 C-10 40 -50 60 -80 60 H-140 V-60 Z" fill="#020617" />
    
    <path d="M40 -100 H180 V-50 H135 V100 H85 V-50 H40 V-100 Z" fill="url(#dt_depth_grad)" transform="translate(10, 10)" />
    <path d="M40 -100 H180 V-50 H135 V100 H85 V-50 H40 V-100 Z" fill="url(#dt_face_grad)" />
  </g>
</svg>
